<svg width="190" height="32" viewBox="0 0 190 32" fill="none" xmlns="http://www.w3.org/2000/svg">
<path d="M18.2057 15.329C20.7983 16.7031 22.0946 18.8549 22.0946 21.7846C22.0946 24.2216 21.1742 26.192 19.3335 27.6957C17.4927 29.1995 15.1205 29.9513 12.2168 29.9513C7.16116 29.9513 3.7778 27.8124 2.06667 23.5346L6.69449 20.929C7.52413 23.5735 9.36488 24.8957 12.2168 24.8957C13.6945 24.8957 14.8223 24.5846 15.6001 23.9624C16.3779 23.3401 16.7668 22.4975 16.7668 21.4346C16.7668 20.3716 16.3779 19.529 15.6001 18.9068C14.8483 18.2845 13.7594 17.9734 12.3334 17.9734H8.95006V13.1901H11.5168C12.8649 13.1901 13.9149 12.9049 14.6668 12.3345C15.4186 11.7382 15.7946 10.9345 15.7946 9.92336C15.7946 8.91225 15.4705 8.1215 14.8223 7.55112C14.1742 6.95482 13.2149 6.65667 11.9445 6.65667C9.61118 6.65667 7.97783 7.79742 7.04449 10.0789L2.49445 7.43446C4.33521 3.57146 7.48524 1.63996 11.9445 1.63996C14.6409 1.63996 16.8446 2.36589 18.5557 3.81776C20.2668 5.26962 21.1224 7.18816 21.1224 9.57336C21.1224 12.0104 20.1502 13.929 18.2057 15.329ZM43.0772 29.4069L41.4438 24.5068H30.5937L28.9604 29.4069H23.1659L32.6937 2.18441H39.3438L48.9106 29.4069H43.0772ZM32.3049 19.4901H39.7716L36.0382 8.3678L32.3049 19.4901ZM72.8262 29.4069H66.6428L56.9205 16.6512V29.4069H51.5538V2.18441H56.9205V14.2012L66.2539 2.18441H72.4373L62.365 15.4067L72.8262 29.4069ZM93.6635 29.4069L92.0302 24.5068H81.1801L79.5467 29.4069H73.7522L83.2801 2.18441H89.9302L99.4969 29.4069H93.6635ZM82.8912 19.4901H90.3579L86.6246 8.3678L82.8912 19.4901ZM116.568 15.329C119.161 16.7031 120.457 18.8549 120.457 21.7846C120.457 24.2216 119.537 26.192 117.696 27.6957C115.855 29.1995 113.483 29.9513 110.579 29.9513C105.524 29.9513 102.14 27.8124 100.429 23.5346L105.057 20.929C105.886 23.5735 107.727 24.8957 110.579 24.8957C112.057 24.8957 113.185 24.5846 113.962 23.9624C114.74 23.3401 115.129 22.4975 115.129 21.4346C115.129 20.3716 114.74 19.529 113.962 18.9068C113.211 18.2845 112.122 17.9734 110.696 17.9734H107.312V13.1901H109.879C111.227 13.1901 112.277 12.9049 113.029 12.3345C113.781 11.7382 114.157 10.9345 114.157 9.92336C114.157 8.91225 113.833 8.1215 113.185 7.55112C112.537 6.95482 111.577 6.65667 110.307 6.65667C107.974 6.65667 106.34 7.79742 105.407 10.0789L100.857 7.43446C102.698 3.57146 105.848 1.63996 110.307 1.63996C113.003 1.63996 115.207 2.36589 116.918 3.81776C118.629 5.26962 119.485 7.18816 119.485 9.57336C119.485 12.0104 118.513 13.929 116.568 15.329ZM141.44 29.4069L139.806 24.5068H128.956L127.323 29.4069H121.528L131.056 2.18441H137.706L147.273 29.4069H141.44ZM130.667 19.4901H138.134L134.401 8.3678L130.667 19.4901ZM165.947 2.18441V7.31779H158.597V29.4069H153.23V7.31779H145.919V2.18441H165.947ZM179.093 11.1289C181.712 11.1289 183.915 12.0104 185.704 13.7734C187.493 15.5364 188.388 17.7012 188.388 20.2679C188.388 22.8346 187.493 24.9994 185.704 26.7624C183.915 28.5254 181.712 29.4069 179.093 29.4069H168.943V2.18441H174.31V11.1289H179.093ZM179.093 24.3902C180.234 24.3902 181.18 24.0013 181.932 23.2235C182.684 22.4457 183.06 21.4605 183.06 20.2679C183.06 19.1012 182.684 18.129 181.932 17.3512C181.18 16.5475 180.234 16.1456 179.093 16.1456H174.31V24.3902H179.093Z" fill="#E58171"/>
<path d="M18.2057 15.329L17.3857 14.19L15.5515 15.5106L17.5485 16.569L18.2057 15.329ZM19.3335 27.6957L20.2213 28.7826L19.3335 27.6957ZM2.06667 23.5346L1.37814 22.3117L0.307174 22.9147L0.763632 24.0558L2.06667 23.5346ZM6.69449 20.929L8.03356 20.5089L7.51512 18.8564L6.00596 19.7061L6.69449 20.929ZM15.6001 23.9624L16.4768 25.0583L15.6001 23.9624ZM15.6001 18.9068L14.7053 19.988L14.7143 19.9954L14.7234 20.0027L15.6001 18.9068ZM8.95006 17.9734H7.54665V19.3769H8.95006V17.9734ZM8.95006 13.1901V11.7866H7.54665V13.1901H8.95006ZM14.6668 12.3345L15.515 13.4526L15.527 13.4435L15.5389 13.4341L14.6668 12.3345ZM14.8223 7.55112L13.8721 8.58394L13.8836 8.59444L13.8952 8.60469L14.8223 7.55112ZM7.04449 10.0789L6.33929 11.2923L7.73304 12.1023L8.34342 10.6103L7.04449 10.0789ZM2.49445 7.43446L1.22752 6.83075L0.671281 7.99807L1.78925 8.64783L2.49445 7.43446ZM17.5485 16.569C18.658 17.157 19.4243 17.8743 19.9202 18.6976C20.4162 19.5208 20.6912 20.532 20.6912 21.7846H23.498C23.498 20.1075 23.1249 18.5779 22.3245 17.2493C21.5242 15.9207 20.346 14.875 18.8629 14.0889L17.5485 16.569ZM20.6912 21.7846C20.6912 23.8127 19.9506 25.3794 18.4456 26.6089L20.2213 28.7826C22.3978 27.0046 23.498 24.6306 23.498 21.7846H20.6912ZM18.4456 26.6089C16.9074 27.8654 14.871 28.5479 12.2168 28.5479V31.3547C15.3699 31.3547 18.078 30.5335 20.2213 28.7826L18.4456 26.6089ZM12.2168 28.5479C9.8851 28.5479 8.05257 28.0555 6.63747 27.1609C5.23206 26.2724 4.13272 24.9209 3.36972 23.0134L0.763632 24.0558C1.71175 26.4261 3.15966 28.283 5.13761 29.5334C7.10587 30.7777 9.49281 31.3547 12.2168 31.3547V28.5479ZM2.7552 24.7575L7.38302 22.1519L6.00596 19.7061L1.37814 22.3117L2.7552 24.7575ZM5.35542 21.3491C5.84047 22.8952 6.66051 24.169 7.87853 25.0439C9.0929 25.9162 10.5735 26.2991 12.2168 26.2991V23.4923C11.0081 23.4923 10.1424 23.2141 9.51604 22.7642C8.8933 22.3169 8.37815 21.6073 8.03356 20.5089L5.35542 21.3491ZM12.2168 26.2991C13.8649 26.2991 15.3549 25.9558 16.4768 25.0583L14.7234 22.8665C14.2897 23.2134 13.5242 23.4923 12.2168 23.4923V26.2991ZM16.4768 25.0583C17.6124 24.1498 18.1702 22.8909 18.1702 21.4346H15.3634C15.3634 22.1042 15.1434 22.5305 14.7234 22.8665L16.4768 25.0583ZM18.1702 21.4346C18.1702 19.9782 17.6124 18.7194 16.4768 17.8109L14.7234 20.0027C15.1434 20.3386 15.3634 20.765 15.3634 21.4346H18.1702ZM16.4949 17.8256C15.3979 16.9177 13.9396 16.57 12.3334 16.57V19.3769C13.5791 19.3769 14.2986 19.6514 14.7053 19.988L16.4949 17.8256ZM12.3334 16.57H8.95006V19.3769H12.3334V16.57ZM10.3535 17.9734V13.1901H7.54665V17.9734H10.3535ZM8.95006 14.5935H11.5168V11.7866H8.95006V14.5935ZM11.5168 14.5935C13.0439 14.5935 14.4341 14.2726 15.515 13.4526L13.8186 11.2164C13.3957 11.5372 12.6859 11.7866 11.5168 11.7866V14.5935ZM15.5389 13.4341C16.6467 12.5555 17.198 11.3363 17.198 9.92336H14.3911C14.3911 10.5327 14.1906 10.9209 13.7947 11.2349L15.5389 13.4341ZM17.198 9.92336C17.198 8.58493 16.7531 7.38077 15.7495 6.49756L13.8952 8.60469C14.1879 8.86222 14.3911 9.23956 14.3911 9.92336H17.198ZM15.7725 6.5183C14.7706 5.59651 13.4126 5.25325 11.9445 5.25325V8.06009C13.0173 8.06009 13.5778 8.31313 13.8721 8.58394L15.7725 6.5183ZM11.9445 5.25325C10.541 5.25325 9.25656 5.59994 8.16593 6.36165C7.08076 7.11954 6.29011 8.21642 5.74556 9.54754L8.34342 10.6103C8.73221 9.65992 9.22491 9.04568 9.77309 8.66282C10.3158 8.28378 11.0147 8.06009 11.9445 8.06009V5.25325ZM7.7497 8.86555L3.19966 6.22109L1.78925 8.64783L6.33929 11.2923L7.7497 8.86555ZM3.76139 8.03816C4.58392 6.31202 5.66225 5.08757 6.97115 4.285C8.28364 3.48022 9.92002 3.04338 11.9445 3.04338V0.236544C9.50975 0.236544 7.34147 0.765452 5.50394 1.89217C3.66281 3.0211 2.24575 4.6939 1.22752 6.83075L3.76139 8.03816ZM11.9445 3.04338C14.3783 3.04338 16.2389 3.69252 17.6477 4.88788L19.4637 2.74764C17.4502 1.03927 14.9034 0.236544 11.9445 0.236544V3.04338ZM17.6477 4.88788C19.0227 6.05455 19.719 7.57076 19.719 9.57336H22.5258C22.5258 6.80555 21.5109 4.4847 19.4637 2.74764L17.6477 4.88788ZM19.719 9.57336C19.719 11.5682 18.9564 13.0591 17.3857 14.19L19.0257 16.4679C21.3439 14.7988 22.5258 12.4526 22.5258 9.57336H19.719ZM43.0772 29.4069L41.7458 29.8507L42.0656 30.8103H43.0772V29.4069ZM41.4438 24.5068L42.7752 24.063L42.4553 23.1034H41.4438V24.5068ZM30.5937 24.5068V23.1034H29.5822L29.2623 24.063L30.5937 24.5068ZM28.9604 29.4069V30.8103H29.9719L30.2918 29.8507L28.9604 29.4069ZM23.1659 29.4069L21.8413 28.9432L21.1878 30.8103H23.1659V29.4069ZM32.6937 2.18441V0.780993H31.698L31.3691 1.72079L32.6937 2.18441ZM39.3438 2.18441L40.6678 1.71911L40.3382 0.780993H39.3438V2.18441ZM48.9105 29.4069V30.8103H50.8913L50.2346 28.9416L48.9105 29.4069ZM32.3049 19.4901L30.9744 19.0435L30.3534 20.8935H32.3049V19.4901ZM39.7716 19.4901V20.8935H41.723L41.1021 19.0435L39.7716 19.4901ZM36.0382 8.3678L37.3687 7.92121L36.0382 3.95753L34.7078 7.92121L36.0382 8.3678ZM44.4086 28.9631L42.7752 24.063L40.1124 24.9506L41.7458 29.8507L44.4086 28.9631ZM41.4438 23.1034H30.5937V25.9102H41.4438V23.1034ZM29.2623 24.063L27.629 28.9631L30.2918 29.8507L31.9251 24.9506L29.2623 24.063ZM28.9604 28.0034H23.1659V30.8103H28.9604V28.0034ZM24.4905 29.8705L34.0184 2.64803L31.3691 1.72079L21.8413 28.9432L24.4905 29.8705ZM32.6937 3.58783H39.3438V0.780993H32.6937V3.58783ZM38.0198 2.64972L47.5865 29.8722L50.2346 28.9416L40.6678 1.71911L38.0198 2.64972ZM48.9105 28.0034H43.0772V30.8103H48.9105V28.0034ZM32.3049 20.8935H39.7716V18.0867H32.3049V20.8935ZM41.1021 19.0435L37.3687 7.92121L34.7078 8.81439L38.4411 19.9367L41.1021 19.0435ZM34.7078 7.92121L30.9744 19.0435L33.6353 19.9367L37.3687 8.81439L34.7078 7.92121ZM72.8262 29.4069V30.8103H75.6268L73.9504 28.5668L72.8262 29.4069ZM66.6428 29.4069L65.5266 30.2576L65.9479 30.8103H66.6428V29.4069ZM56.9205 16.6512L58.0367 15.8005L55.5171 12.4948V16.6512H56.9205ZM56.9205 29.4069V30.8103H58.3239V29.4069H56.9205ZM51.5538 29.4069H50.1504V30.8103H51.5538V29.4069ZM51.5538 2.18441V0.780993H50.1504V2.18441H51.5538ZM56.9205 2.18441H58.3239V0.780993H56.9205V2.18441ZM56.9205 14.2012H55.5171V18.296L58.0289 15.062L56.9205 14.2012ZM66.2539 2.18441V0.780993H65.5669L65.1455 1.32354L66.2539 2.18441ZM72.4373 2.18441L73.5537 3.03485L75.2706 0.780993H72.4373V2.18441ZM62.365 15.4067L61.2486 14.5563L60.607 15.3986L61.2408 16.2468L62.365 15.4067ZM72.8262 28.0034H66.6428V30.8103H72.8262V28.0034ZM67.759 28.5561L58.0367 15.8005L55.8043 17.5019L65.5266 30.2576L67.759 28.5561ZM55.5171 16.6512V29.4069H58.3239V16.6512H55.5171ZM56.9205 28.0034H51.5538V30.8103H56.9205V28.0034ZM52.9572 29.4069V2.18441H50.1504V29.4069H52.9572ZM51.5538 3.58783H56.9205V0.780993H51.5538V3.58783ZM55.5171 2.18441V14.2012H58.3239V2.18441H55.5171ZM58.0289 15.062L67.3623 3.04528L65.1455 1.32354L55.8121 13.3403L58.0289 15.062ZM66.2539 3.58783H72.4373V0.780993H66.2539V3.58783ZM71.3209 1.33398L61.2486 14.5563L63.4814 16.2572L73.5537 3.03485L71.3209 1.33398ZM61.2408 16.2468L71.702 30.2469L73.9504 28.5668L63.4892 14.5667L61.2408 16.2468ZM93.6635 29.4069L92.3321 29.8507L92.652 30.8103H93.6635V29.4069ZM92.0302 24.5068L93.3616 24.063L93.0417 23.1034H92.0302V24.5068ZM81.1801 24.5068V23.1034H80.1686L79.8487 24.063L81.1801 24.5068ZM79.5467 29.4069V30.8103H80.5583L80.8781 29.8507L79.5467 29.4069ZM73.7522 29.4069L72.4276 28.9432L71.7741 30.8103H73.7522V29.4069ZM83.2801 2.18441V0.780993H82.2844L81.9555 1.72079L83.2801 2.18441ZM89.9302 2.18441L91.2542 1.71911L90.9245 0.780993H89.9302V2.18441ZM99.4969 29.4069V30.8103H101.478L100.821 28.9416L99.4969 29.4069ZM82.8912 19.4901L81.5607 19.0435L80.9398 20.8935H82.8912V19.4901ZM90.3579 19.4901V20.8935H92.3094L91.6884 19.0435L90.3579 19.4901ZM86.6246 8.3678L87.955 7.92121L86.6246 3.95753L85.2941 7.92121L86.6246 8.3678ZM94.9949 28.9631L93.3616 24.063L90.6988 24.9506L92.3321 29.8507L94.9949 28.9631ZM92.0302 23.1034H81.1801V25.9102H92.0302V23.1034ZM79.8487 24.063L78.2153 28.9631L80.8781 29.8507L82.5115 24.9506L79.8487 24.063ZM79.5467 28.0034H73.7522V30.8103H79.5467V28.0034ZM75.0769 29.8705L84.6047 2.64803L81.9555 1.72079L72.4276 28.9432L75.0769 29.8705ZM83.2801 3.58783H89.9302V0.780993H83.2801V3.58783ZM88.6061 2.64972L98.1729 29.8722L100.821 28.9416L91.2542 1.71911L88.6061 2.64972ZM99.4969 28.0034H93.6635V30.8103H99.4969V28.0034ZM82.8912 20.8935H90.3579V18.0867H82.8912V20.8935ZM91.6884 19.0435L87.955 7.92121L85.2941 8.81439L89.0275 19.9367L91.6884 19.0435ZM85.2941 7.92121L81.5607 19.0435L84.2217 19.9367L87.955 8.81439L85.2941 7.92121ZM116.568 15.329L115.748 14.19L113.914 15.5106L115.911 16.569L116.568 15.329ZM117.696 27.6957L118.584 28.7826L117.696 27.6957ZM100.429 23.5346L99.7405 22.3117L98.6695 22.9147L99.126 24.0558L100.429 23.5346ZM105.057 20.929L106.396 20.5089L105.877 18.8564L104.368 19.7061L105.057 20.929ZM113.962 23.9624L114.839 25.0583L113.962 23.9624ZM113.962 18.9068L113.068 19.988L113.077 19.9954L113.086 20.0027L113.962 18.9068ZM107.312 17.9734H105.909V19.3769H107.312V17.9734ZM107.312 13.1901V11.7866H105.909V13.1901H107.312ZM113.029 12.3345L113.877 13.4526L113.889 13.4435L113.901 13.4341L113.029 12.3345ZM113.185 7.55112L112.234 8.58394L112.246 8.59444L112.258 8.60469L113.185 7.55112ZM105.407 10.0789L104.702 11.2923L106.095 12.1023L106.706 10.6103L105.407 10.0789ZM100.857 7.43446L99.5899 6.83075L99.0336 7.99807L100.152 8.64783L100.857 7.43446ZM115.911 16.569C117.02 17.157 117.787 17.8743 118.283 18.6976C118.779 19.5208 119.054 20.532 119.054 21.7846H121.86C121.86 20.1075 121.487 18.5779 120.687 17.2493C119.887 15.9207 118.708 14.875 117.225 14.0889L115.911 16.569ZM119.054 21.7846C119.054 23.8127 118.313 25.3794 116.808 26.6089L118.584 28.7826C120.76 27.0046 121.86 24.6306 121.86 21.7846H119.054ZM116.808 26.6089C115.27 27.8654 113.233 28.5479 110.579 28.5479V31.3547C113.732 31.3547 116.44 30.5335 118.584 28.7826L116.808 26.6089ZM110.579 28.5479C108.247 28.5479 106.415 28.0555 105 27.1609C103.594 26.2724 102.495 24.9209 101.732 23.0134L99.126 24.0558C100.074 26.4261 101.522 28.283 103.5 29.5334C105.468 30.7777 107.855 31.3547 110.579 31.3547V28.5479ZM101.118 24.7575L105.745 22.1519L104.368 19.7061L99.7405 22.3117L101.118 24.7575ZM103.718 21.3491C104.203 22.8952 105.023 24.169 106.241 25.0439C107.455 25.9162 108.936 26.2991 110.579 26.2991V23.4923C109.37 23.4923 108.505 23.2141 107.878 22.7642C107.256 22.3169 106.741 21.6073 106.396 20.5089L103.718 21.3491ZM110.579 26.2991C112.227 26.2991 113.717 25.9558 114.839 25.0583L113.086 22.8665C112.652 23.2134 111.887 23.4923 110.579 23.4923V26.2991ZM114.839 25.0583C115.975 24.1498 116.533 22.8909 116.533 21.4346H113.726C113.726 22.1042 113.506 22.5305 113.086 22.8665L114.839 25.0583ZM116.533 21.4346C116.533 19.9782 115.975 18.7194 114.839 17.8109L113.086 20.0027C113.506 20.3386 113.726 20.765 113.726 21.4346H116.533ZM114.857 17.8256C113.76 16.9177 112.302 16.57 110.696 16.57V19.3769C111.941 19.3769 112.661 19.6514 113.068 19.988L114.857 17.8256ZM110.696 16.57H107.312V19.3769H110.696V16.57ZM108.716 17.9734V13.1901H105.909V17.9734H108.716ZM107.312 14.5935H109.879V11.7866H107.312V14.5935ZM109.879 14.5935C111.406 14.5935 112.796 14.2726 113.877 13.4526L112.181 11.2164C111.758 11.5372 111.048 11.7866 109.879 11.7866V14.5935ZM113.901 13.4341C115.009 12.5555 115.56 11.3363 115.56 9.92336H112.753C112.753 10.5327 112.553 10.9209 112.157 11.2349L113.901 13.4341ZM115.56 9.92336C115.56 8.58493 115.115 7.38077 114.112 6.49756L112.258 8.60469C112.55 8.86222 112.753 9.23956 112.753 9.92336H115.56ZM114.135 6.5183C113.133 5.59651 111.775 5.25325 110.307 5.25325V8.06009C111.38 8.06009 111.94 8.31313 112.234 8.58394L114.135 6.5183ZM110.307 5.25325C108.903 5.25325 107.619 5.59994 106.528 6.36165C105.443 7.11954 104.652 8.21642 104.108 9.54754L106.706 10.6103C107.095 9.65992 107.587 9.04568 108.135 8.66282C108.678 8.28378 109.377 8.06009 110.307 8.06009V5.25325ZM106.112 8.86555L101.562 6.22109L100.152 8.64783L104.702 11.2923L106.112 8.86555ZM102.124 8.03816C102.946 6.31202 104.025 5.08757 105.333 4.285C106.646 3.48022 108.282 3.04338 110.307 3.04338V0.236544C107.872 0.236544 105.704 0.765452 103.866 1.89217C102.025 3.0211 100.608 4.6939 99.5899 6.83075L102.124 8.03816ZM110.307 3.04338C112.741 3.04338 114.601 3.69252 116.01 4.88788L117.826 2.74764C115.813 1.03927 113.266 0.236544 110.307 0.236544V3.04338ZM116.01 4.88788C117.385 6.05455 118.081 7.57076 118.081 9.57336H120.888C120.888 6.80555 119.873 4.4847 117.826 2.74764L116.01 4.88788ZM118.081 9.57336C118.081 11.5682 117.319 13.0591 115.748 14.19L117.388 16.4679C119.706 14.7988 120.888 12.4526 120.888 9.57336H118.081ZM141.44 29.4069L140.108 29.8507L140.428 30.8103H141.44V29.4069ZM139.806 24.5068L141.138 24.063L140.818 23.1034H139.806V24.5068ZM128.956 24.5068V23.1034H127.945L127.625 24.063L128.956 24.5068ZM127.323 29.4069V30.8103H128.334L128.654 29.8507L127.323 29.4069ZM121.528 29.4069L120.204 28.9432L119.55 30.8103H121.528V29.4069ZM131.056 2.18441V0.780993H130.06L129.731 1.72079L131.056 2.18441ZM137.706 2.18441L139.03 1.71911L138.701 0.780993H137.706V2.18441ZM147.273 29.4069V30.8103H149.254L148.597 28.9416L147.273 29.4069ZM130.667 19.4901L129.337 19.0435L128.716 20.8935H130.667V19.4901ZM138.134 19.4901V20.8935H140.085L139.464 19.0435L138.134 19.4901ZM134.401 8.3678L135.731 7.92121L134.401 3.95753L133.07 7.92121L134.401 8.3678ZM142.771 28.9631L141.138 24.063L138.475 24.9506L140.108 29.8507L142.771 28.9631ZM139.806 23.1034H128.956V25.9102H139.806V23.1034ZM127.625 24.063L125.991 28.9631L128.654 29.8507L130.287 24.9506L127.625 24.063ZM127.323 28.0034H121.528V30.8103H127.323V28.0034ZM122.853 29.8705L132.381 2.64803L129.731 1.72079L120.204 28.9432L122.853 29.8705ZM131.056 3.58783H137.706V0.780993H131.056V3.58783ZM136.382 2.64972L145.949 29.8722L148.597 28.9416L139.03 1.71911L136.382 2.64972ZM147.273 28.0034H141.44V30.8103H147.273V28.0034ZM130.667 20.8935H138.134V18.0867H130.667V20.8935ZM139.464 19.0435L135.731 7.92121L133.07 8.81439L136.803 19.9367L139.464 19.0435ZM133.07 7.92121L129.337 19.0435L131.998 19.9367L135.731 8.81439L133.07 7.92121ZM165.947 2.18441H167.35V0.780993H165.947V2.18441ZM165.947 7.31779V8.72121H167.35V7.31779H165.947ZM158.597 7.31779V5.91437H157.194V7.31779H158.597ZM158.597 29.4069V30.8103H160V29.4069H158.597ZM153.23 29.4069H151.827V30.8103H153.23V29.4069ZM153.23 7.31779H154.634V5.91437H153.23V7.31779ZM145.919 7.31779H144.516V8.72121H145.919V7.31779ZM145.919 2.18441V0.780993H144.516V2.18441H145.919ZM164.544 2.18441V7.31779H167.35V2.18441H164.544ZM165.947 5.91437H158.597V8.72121H165.947V5.91437ZM157.194 7.31779V29.4069H160V7.31779H157.194ZM158.597 28.0034H153.23V30.8103H158.597V28.0034ZM154.634 29.4069V7.31779H151.827V29.4069H154.634ZM153.23 5.91437H145.919V8.72121H153.23V5.91437ZM147.322 7.31779V2.18441H144.516V7.31779H147.322ZM145.919 3.58783H165.947V0.780993H145.919V3.58783ZM185.704 13.7734L184.719 14.773L185.704 13.7734ZM185.704 26.7624L186.689 27.762L185.704 26.7624ZM168.943 29.4069H167.54V30.8103H168.943V29.4069ZM168.943 2.18441V0.780993H167.54V2.18441H168.943ZM174.31 2.18441H175.713V0.780993H174.31V2.18441ZM174.31 11.1289H172.906V12.5323H174.31V11.1289ZM181.932 17.3512L180.907 18.31L180.915 18.3184L180.923 18.3266L181.932 17.3512ZM174.31 16.1456V14.7422H172.906V16.1456H174.31ZM174.31 24.3902H172.906V25.7936H174.31V24.3902ZM179.093 12.5323C181.36 12.5323 183.205 13.2808 184.719 14.773L186.689 12.7738C184.626 10.7401 182.063 9.72551 179.093 9.72551V12.5323ZM184.719 14.773C186.234 16.2658 186.984 18.0677 186.984 20.2679H189.791C189.791 17.3347 188.752 14.807 186.689 12.7738L184.719 14.773ZM186.984 20.2679C186.984 22.4681 186.234 24.27 184.719 25.7628L186.689 27.762C188.752 25.7288 189.791 23.2011 189.791 20.2679H186.984ZM184.719 25.7628C183.205 27.255 181.36 28.0034 179.093 28.0034V30.8103C182.063 30.8103 184.626 29.7957 186.689 27.762L184.719 25.7628ZM179.093 28.0034H168.943V30.8103H179.093V28.0034ZM170.346 29.4069V2.18441H167.54V29.4069H170.346ZM168.943 3.58783H174.31V0.780993H168.943V3.58783ZM172.906 2.18441V11.1289H175.713V2.18441H172.906ZM174.31 12.5323H179.093V9.72551H174.31V12.5323ZM179.093 25.7936C180.591 25.7936 181.909 25.2664 182.941 24.1989L180.923 22.2481C180.451 22.7361 179.877 22.9867 179.093 22.9867V25.7936ZM182.941 24.1989C183.973 23.1315 184.463 21.7837 184.463 20.2679H181.656C181.656 21.1372 181.395 21.7599 180.923 22.2481L182.941 24.1989ZM184.463 20.2679C184.463 18.7686 183.967 17.437 182.941 16.3758L180.923 18.3266C181.401 18.821 181.656 19.4338 181.656 20.2679H184.463ZM182.957 16.3925C181.929 15.2936 180.606 14.7422 179.093 14.7422V17.5491C179.861 17.5491 180.431 17.8014 180.907 18.31L182.957 16.3925ZM179.093 14.7422H174.31V17.5491H179.093V14.7422ZM172.906 16.1456V24.3902H175.713V16.1456H172.906ZM174.31 25.7936H179.093V22.9867H174.31V25.7936Z" fill="white"/>
</svg>
