<svg width="36" height="65" viewBox="0 0 36 65" fill="none" xmlns="http://www.w3.org/2000/svg">
<path d="M1.40625 26.6058L0.537623 38.4694L27.8162 36.1295L28.1321 31.8155L1.40625 26.6058Z" fill="#E58171"/>
<path d="M15.9531 1.73352L11.349 9.71479L31.1625 17.2764L32.8367 14.3741L15.9531 1.73352Z" fill="#E58171"/>
<path d="M12.1699 64.5161L7.56583 56.5348L27.3793 48.9733L29.0535 51.8755L12.1699 64.5161Z" fill="#E58171"/>
<path d="M28.793 30.9818L3.45458 26.0426L2.7038 36.2966L28.5663 34.0782L28.793 30.9818Z" stroke="white" stroke-width="1.40342"/>
<path d="M33.3241 13.1595L17.572 1.36608L13.7743 7.94942L32.2599 15.0042L33.3241 13.1595Z" stroke="white" stroke-width="1.40342"/>
<path d="M29.5409 50.2836L13.7888 62.077L9.9911 55.4937L28.4767 48.4389L29.5409 50.2836Z" stroke="white" stroke-width="1.40342"/>
</svg>
