<svg width="1382" height="35" viewBox="0 0 1382 35" fill="none" xmlns="http://www.w3.org/2000/svg">
<path d="M0.80332 29.2367V24.0253C2.48615 24.2696 3.74828 23.9303 4.5897 23.0075C5.43112 22.0846 5.85182 20.2797 5.85182 17.5926V0.737073H25.2316V29.2367H19.6538V6.11129H11.4296V17.4297C11.4296 19.8997 11.131 21.9761 10.5339 23.6589C9.93677 25.3417 9.10892 26.5903 8.05037 27.4046C7.01895 28.2189 5.90611 28.7617 4.71184 29.0331C3.54471 29.3046 2.24187 29.3724 0.80332 29.2367ZM36.1339 23.8625H48.1445V29.2367H30.5154V0.737073H47.9409V6.11129H36.1339V12.1776H46.9231V17.4704H36.1339V23.8625ZM70.9553 0.737073V6.11129H63.2604V29.2367H57.6419V6.11129H49.9877V0.737073H70.9553ZM96.4421 25.5317C93.565 28.3817 90.0636 29.8067 85.938 29.8067C81.8123 29.8067 78.3109 28.3817 75.4338 25.5317C72.5839 22.6546 71.1589 19.1397 71.1589 14.9869C71.1589 10.8341 72.5839 7.3327 75.4338 4.48274C78.3109 1.60563 81.8123 0.167081 85.938 0.167081C90.0636 0.167081 93.565 1.60563 96.4421 4.48274C99.3192 7.3327 100.758 10.8341 100.758 14.9869C100.758 19.1397 99.3192 22.6546 96.4421 25.5317ZM79.3831 21.7047C81.1473 23.4418 83.3323 24.3103 85.938 24.3103C88.5437 24.3103 90.7286 23.4418 92.4929 21.7047C94.2572 19.9404 95.1393 17.7011 95.1393 14.9869C95.1393 12.2726 94.2572 10.0334 92.4929 8.26912C90.7286 6.50485 88.5437 5.62272 85.938 5.62272C83.3323 5.62272 81.1473 6.50485 79.3831 8.26912C77.6188 10.0334 76.7367 12.2726 76.7367 14.9869C76.7367 17.7011 77.6188 19.9404 79.3831 21.7047ZM146.357 0.737073V29.2367H140.738V6.11129H130.682V29.2367H125.064V0.737073H146.357ZM175.643 25.5317C172.766 28.3817 169.265 29.8067 165.139 29.8067C161.013 29.8067 157.512 28.3817 154.635 25.5317C151.785 22.6546 150.36 19.1397 150.36 14.9869C150.36 10.8341 151.785 7.3327 154.635 4.48274C157.512 1.60563 161.013 0.167081 165.139 0.167081C169.265 0.167081 172.766 1.60563 175.643 4.48274C178.52 7.3327 179.959 10.8341 179.959 14.9869C179.959 19.1397 178.52 22.6546 175.643 25.5317ZM158.584 21.7047C160.348 23.4418 162.533 24.3103 165.139 24.3103C167.745 24.3103 169.93 23.4418 171.694 21.7047C173.458 19.9404 174.34 17.7011 174.34 14.9869C174.34 12.2726 173.458 10.0334 171.694 8.26912C169.93 6.50485 167.745 5.62272 165.139 5.62272C162.533 5.62272 160.348 6.50485 158.584 8.26912C156.82 10.0334 155.938 12.2726 155.938 14.9869C155.938 17.7011 156.82 19.9404 158.584 21.7047ZM210.29 0.737073H215.868V29.2367H210.29V17.4297H199.705V29.2367H194.086V0.737073H199.705V12.0555H210.29V0.737073ZM245.143 25.5317C242.266 28.3817 238.764 29.8067 234.639 29.8067C230.513 29.8067 227.012 28.3817 224.134 25.5317C221.284 22.6546 219.859 19.1397 219.859 14.9869C219.859 10.8341 221.284 7.3327 224.134 4.48274C227.012 1.60563 230.513 0.167081 234.639 0.167081C238.764 0.167081 242.266 1.60563 245.143 4.48274C248.02 7.3327 249.458 10.8341 249.458 14.9869C249.458 19.1397 248.02 22.6546 245.143 25.5317ZM228.084 21.7047C229.848 23.4418 232.033 24.3103 234.639 24.3103C237.244 24.3103 239.429 23.4418 241.193 21.7047C242.958 19.9404 243.84 17.7011 243.84 14.9869C243.84 12.2726 242.958 10.0334 241.193 8.26912C239.429 6.50485 237.244 5.62272 234.639 5.62272C232.033 5.62272 229.848 6.50485 228.084 8.26912C226.319 10.0334 225.437 12.2726 225.437 14.9869C225.437 17.7011 226.319 19.9404 228.084 21.7047ZM270.629 14.4576C273.126 15.8962 274.375 18.0676 274.375 20.9718C274.375 23.3875 273.52 25.3689 271.81 26.916C270.1 28.4631 267.996 29.2367 265.499 29.2367H253.407V0.737073H264.644C267.087 0.737073 269.136 1.49706 270.792 3.01704C272.475 4.50988 273.316 6.42343 273.316 8.75768C273.316 11.1191 272.421 13.0191 270.629 14.4576ZM264.644 5.98915H259.026V12.2591H264.644C265.513 12.2591 266.232 11.9605 266.802 11.3634C267.399 10.7662 267.698 10.0198 267.698 9.12411C267.698 8.2284 267.413 7.48198 266.843 6.88485C266.273 6.28771 265.54 5.98915 264.644 5.98915ZM265.499 23.9846C266.449 23.9846 267.236 23.6725 267.861 23.0482C268.485 22.3968 268.797 21.5825 268.797 20.6054C268.797 19.6554 268.485 18.8683 267.861 18.244C267.236 17.5926 266.449 17.2669 265.499 17.2669H259.026V23.9846H265.499ZM278.058 29.2367V0.737073H283.677V10.1012H288.684C291.426 10.1012 293.733 11.0241 295.606 12.8698C297.479 14.7155 298.415 16.9819 298.415 19.669C298.415 22.3561 297.479 24.6225 295.606 26.4682C293.733 28.3138 291.426 29.2367 288.684 29.2367H278.058ZM301.021 29.2367V0.737073H306.599V29.2367H301.021ZM283.677 23.9846H288.684C289.879 23.9846 290.869 23.5775 291.657 22.7632C292.444 21.9489 292.837 20.9175 292.837 19.669C292.837 18.4204 292.444 17.389 291.657 16.5747C290.869 15.7604 289.879 15.3533 288.684 15.3533H283.677V23.9846ZM339.782 0.737073V29.2367H334.205V10.7527L326.184 23.9846H325.533L317.512 10.7934V29.2367H311.894V0.737073H317.675L325.858 14.2133L334.001 0.737073H339.782ZM376.564 0.737073V29.2367H370.946V6.11129H360.89V29.2367H355.271V0.737073H376.564ZM392.497 0.737073C395.238 0.737073 397.545 1.65992 399.418 3.50561C401.291 5.3513 402.227 7.6177 402.227 10.3048C402.227 12.9919 401.291 15.2583 399.418 17.104C397.545 18.9497 395.238 19.8725 392.497 19.8725H387.489V29.2367H381.87V0.737073H392.497ZM392.497 14.6205C393.691 14.6205 394.682 14.2133 395.469 13.399C396.256 12.5576 396.649 11.5262 396.649 10.3048C396.649 9.05625 396.256 8.02483 395.469 7.21056C394.682 6.39628 393.691 5.98915 392.497 5.98915H387.489V14.6205H392.497ZM421.304 29.2367L419.594 24.1068H408.235L406.525 29.2367H400.458L410.433 0.737073H417.395L427.411 29.2367H421.304ZM410.026 18.8547H417.843L413.935 7.21056L410.026 18.8547ZM447.4 14.4576C449.897 15.8962 451.146 18.0676 451.146 20.9718C451.146 23.3875 450.291 25.3689 448.581 26.916C446.871 28.4631 444.767 29.2367 442.27 29.2367H430.178V0.737073H441.415C443.858 0.737073 445.907 1.49706 447.563 3.01704C449.246 4.50988 450.087 6.42343 450.087 8.75768C450.087 11.1191 449.191 13.0191 447.4 14.4576ZM441.415 5.98915H435.797V12.2591H441.415C442.284 12.2591 443.003 11.9605 443.573 11.3634C444.17 10.7662 444.469 10.0198 444.469 9.12411C444.469 8.2284 444.184 7.48198 443.614 6.88485C443.044 6.28771 442.311 5.98915 441.415 5.98915ZM442.27 23.9846C443.22 23.9846 444.007 23.6725 444.631 23.0482C445.256 22.3968 445.568 21.5825 445.568 20.6054C445.568 19.6554 445.256 18.8683 444.631 18.244C444.007 17.5926 443.22 17.2669 442.27 17.2669H435.797V23.9846H442.27ZM471.318 29.2367V11.8519L459.104 29.2367H454.829V0.737073H460.447V18.1626L472.662 0.737073H476.937V29.2367H471.318ZM480.025 29.2367V24.0253C481.708 24.2696 482.97 23.9303 483.811 23.0075C484.653 22.0846 485.073 20.2797 485.073 17.5926V0.737073H504.453V29.2367H498.875V6.11129H490.651V17.4297C490.651 19.8997 490.352 21.9761 489.755 23.6589C489.158 25.3417 488.33 26.5903 487.272 27.4046C486.24 28.2189 485.128 28.7617 483.933 29.0331C482.766 29.3046 481.463 29.3724 480.025 29.2367ZM528.058 29.2367L526.348 24.1068H514.989L513.279 29.2367H507.213L517.187 0.737073H524.15L534.165 29.2367H528.058ZM516.78 18.8547H524.597L520.689 7.21056L516.78 18.8547ZM564.821 0.737073V29.2367H559.243V10.7527L551.223 23.9846H550.571L542.551 10.7934V29.2367H536.932V0.737073H542.714L550.897 14.2133L559.04 0.737073H564.821ZM575.384 14.1726C574.705 14.8512 573.891 15.1905 572.941 15.1905C571.991 15.1905 571.177 14.8512 570.498 14.1726C569.819 13.494 569.48 12.6798 569.48 11.7298C569.48 10.7798 569.819 9.96552 570.498 9.28696C571.177 8.6084 571.991 8.26912 572.941 8.26912C573.891 8.26912 574.705 8.6084 575.384 9.28696C576.062 9.96552 576.401 10.7798 576.401 11.7298C576.401 12.6798 576.062 13.494 575.384 14.1726ZM575.384 28.7481C574.705 29.4267 573.891 29.766 572.941 29.766C571.991 29.766 571.177 29.4267 570.498 28.7481C569.819 28.0696 569.48 27.2553 569.48 26.3053C569.48 25.3553 569.819 24.541 570.498 23.8625C571.177 23.1839 571.991 22.8446 572.941 22.8446C573.891 22.8446 574.705 23.1839 575.384 23.8625C576.062 24.541 576.401 25.3553 576.401 26.3053C576.401 27.2553 576.062 28.0696 575.384 28.7481ZM602.115 11.5262C604.884 11.5262 607.15 12.3541 608.915 14.0098C610.679 15.6383 611.561 17.7554 611.561 20.3611C611.561 22.9939 610.679 25.1382 608.915 26.7939C607.15 28.4224 604.884 29.2367 602.115 29.2367H591.204V0.737073H609.118V6.11129H596.823V11.5262H602.115ZM602.115 23.9846C603.228 23.9846 604.151 23.6725 604.884 23.0482C605.617 22.3968 605.983 21.5011 605.983 20.3611C605.983 19.2211 605.617 18.339 604.884 17.7147C604.151 17.0904 603.228 16.7783 602.115 16.7783H596.823V23.9846H602.115ZM620.639 23.8625H632.649V29.2367H615.02V0.737073H632.446V6.11129H620.639V12.1776H631.428V17.4704H620.639V23.8625ZM649.928 29.8067C645.639 29.8067 642.097 28.3817 639.301 25.5317C636.506 22.6818 635.108 19.1668 635.108 14.9869C635.108 10.7798 636.506 7.26485 639.301 4.44202C642.097 1.59206 645.639 0.167081 649.928 0.167081C652.506 0.167081 654.881 0.777788 657.053 1.9992C659.251 3.19347 660.961 4.82202 662.182 6.88485L657.338 9.6941C656.632 8.4184 655.628 7.4277 654.325 6.72199C653.022 5.98915 651.556 5.62272 649.928 5.62272C647.159 5.62272 644.92 6.49128 643.21 8.2284C641.527 9.96552 640.686 12.2183 640.686 14.9869C640.686 17.7283 641.527 19.9675 643.21 21.7047C644.92 23.4418 647.159 24.3103 649.928 24.3103C651.556 24.3103 653.022 23.9575 654.325 23.2518C655.655 22.5189 656.659 21.5282 657.338 20.2797L662.182 23.0889C660.961 25.1517 659.265 26.7939 657.093 28.0153C654.922 29.2096 652.533 29.8067 649.928 29.8067ZM686.927 0.737073V29.2367H681.309V6.11129H671.252V29.2367H665.634V0.737073H686.927ZM690.034 29.2367V24.0253C691.717 24.2696 692.979 23.9303 693.821 23.0075C694.662 22.0846 695.083 20.2797 695.083 17.5926V0.737073H714.463V29.2367H708.885V6.11129H700.661V17.4297C700.661 19.8997 700.362 21.9761 699.765 23.6589C699.168 25.3417 698.34 26.5903 697.282 27.4046C696.25 28.2189 695.137 28.7617 693.943 29.0331C692.776 29.3046 691.473 29.3724 690.034 29.2367ZM738.068 29.2367L736.358 24.1068H724.999L723.289 29.2367H717.222L727.197 0.737073H734.159L744.175 29.2367H738.068ZM726.79 18.8547H734.607L730.699 7.21056L726.79 18.8547ZM763.725 0.737073V6.11129H756.03V29.2367H750.412V6.11129H742.757V0.737073H763.725ZM783.066 0.737073H788.643V29.2367H783.066V17.4297H772.48V29.2367H766.862V0.737073H772.48V12.0555H783.066V0.737073ZM812.259 29.2367L810.549 24.1068H799.19L797.48 29.2367H791.414L801.388 0.737073H808.351L818.366 29.2367H812.259ZM800.981 18.8547H808.798L804.89 7.21056L800.981 18.8547ZM841.564 0.737073V29.2367H835.946V19.3433H832.729L826.174 29.2367H819.864L826.826 18.7325C825.007 18.0811 823.528 16.9683 822.388 15.394C821.248 13.8198 820.678 12.0826 820.678 10.1827C820.678 7.57698 821.601 5.3513 823.446 3.50561C825.292 1.65992 827.531 0.737073 830.164 0.737073H841.564ZM830.164 14.4169H835.946V5.98915H830.164C829.106 5.98915 828.196 6.39628 827.436 7.21056C826.676 8.02483 826.296 9.01553 826.296 10.1827C826.296 11.3498 826.676 12.3541 827.436 13.1955C828.196 14.0098 829.106 14.4169 830.164 14.4169ZM878.94 23.8625H881.994V34.6923H876.375V29.2367H860.619V34.6923H855V23.8625H857.769C859.343 21.6639 860.13 18.4476 860.13 14.2133V0.737073H878.94V23.8625ZM863.795 23.8625H873.322V5.98915H865.749V14.2948C865.749 18.4204 865.097 21.6097 863.795 23.8625ZM909.286 25.5317C906.408 28.3817 902.907 29.8067 898.781 29.8067C894.656 29.8067 891.154 28.3817 888.277 25.5317C885.427 22.6546 884.002 19.1397 884.002 14.9869C884.002 10.8341 885.427 7.3327 888.277 4.48274C891.154 1.60563 894.656 0.167081 898.781 0.167081C902.907 0.167081 906.408 1.60563 909.286 4.48274C912.163 7.3327 913.601 10.8341 913.601 14.9869C913.601 19.1397 912.163 22.6546 909.286 25.5317ZM892.227 21.7047C893.991 23.4418 896.176 24.3103 898.781 24.3103C901.387 24.3103 903.572 23.4418 905.336 21.7047C907.101 19.9404 907.983 17.7011 907.983 14.9869C907.983 12.2726 907.101 10.0334 905.336 8.26912C903.572 6.50485 901.387 5.62272 898.781 5.62272C896.176 5.62272 893.991 6.50485 892.227 8.26912C890.462 10.0334 889.58 12.2726 889.58 14.9869C889.58 17.7011 890.462 19.9404 892.227 21.7047ZM931.067 29.8067C926.779 29.8067 923.237 28.3817 920.441 25.5317C917.645 22.6818 916.247 19.1668 916.247 14.9869C916.247 10.7798 917.645 7.26485 920.441 4.44202C923.237 1.59206 926.779 0.167081 931.067 0.167081C933.646 0.167081 936.021 0.777788 938.192 1.9992C940.391 3.19347 942.101 4.82202 943.322 6.88485L938.477 9.6941C937.771 8.4184 936.767 7.4277 935.464 6.72199C934.161 5.98915 932.696 5.62272 931.067 5.62272C928.299 5.62272 926.059 6.49128 924.349 8.2284C922.667 9.96552 921.825 12.2183 921.825 14.9869C921.825 17.7283 922.667 19.9675 924.349 21.7047C926.059 23.4418 928.299 24.3103 931.067 24.3103C932.696 24.3103 934.161 23.9575 935.464 23.2518C936.794 22.5189 937.799 21.5282 938.477 20.2797L943.322 23.0889C942.101 25.1517 940.404 26.7939 938.233 28.0153C936.061 29.2096 933.673 29.8067 931.067 29.8067ZM965.505 0.737073V6.11129H957.81V29.2367H952.191V6.11129H944.537V0.737073H965.505ZM984.895 29.2367L983.185 24.1068H971.826L970.116 29.2367H964.049L974.024 0.737073H980.986L991.002 29.2367H984.895ZM973.617 18.8547H981.434L977.526 7.21056L973.617 18.8547ZM1010.99 14.4576C1013.49 15.8962 1014.74 18.0676 1014.74 20.9718C1014.74 23.3875 1013.88 25.3689 1012.17 26.916C1010.46 28.4631 1008.36 29.2367 1005.86 29.2367H993.769V0.737073H1005.01C1007.45 0.737073 1009.5 1.49706 1011.15 3.01704C1012.84 4.50988 1013.68 6.42343 1013.68 8.75768C1013.68 11.1191 1012.78 13.0191 1010.99 14.4576ZM1005.01 5.98915H999.388V12.2591H1005.01C1005.87 12.2591 1006.59 11.9605 1007.16 11.3634C1007.76 10.7662 1008.06 10.0198 1008.06 9.12411C1008.06 8.2284 1007.77 7.48198 1007.2 6.88485C1006.63 6.28771 1005.9 5.98915 1005.01 5.98915ZM1005.86 23.9846C1006.81 23.9846 1007.6 23.6725 1008.22 23.0482C1008.85 22.3968 1009.16 21.5825 1009.16 20.6054C1009.16 19.6554 1008.85 18.8683 1008.22 18.244C1007.6 17.5926 1006.81 17.2669 1005.86 17.2669H999.388V23.9846H1005.86ZM1040.69 29.2367H1034.22L1024.04 15.8826V29.2367H1018.42V0.737073H1024.04V13.3176L1033.81 0.737073H1040.28L1029.74 14.5797L1040.69 29.2367ZM1062.51 29.2367L1060.8 24.1068H1049.44L1047.73 29.2367H1041.66L1051.63 0.737073H1058.6L1068.61 29.2367H1062.51ZM1051.23 18.8547H1059.04L1055.14 7.21056L1051.23 18.8547ZM1103.46 23.8625H1106.52V34.6923H1100.9V29.2367H1085.14V34.6923H1079.52V23.8625H1082.29C1083.87 21.6639 1084.65 18.4476 1084.65 14.2133V0.737073H1103.46V23.8625ZM1088.32 23.8625H1097.84V5.98915H1090.27V14.2948C1090.27 18.4204 1089.62 21.6097 1088.32 23.8625ZM1128.74 29.2367L1127.03 24.1068H1115.68L1113.97 29.2367H1107.9L1117.87 0.737073H1124.84L1134.85 29.2367H1128.74ZM1117.47 18.8547H1125.28L1121.38 7.21056L1117.47 18.8547ZM1171.29 29.2367H1165.02L1156.18 16.249V29.2367H1150.57V16.249L1141.73 29.2367H1135.5L1145.4 14.7019L1135.91 0.737073H1142.14L1150.57 13.4398V0.737073H1156.18V13.4398L1164.61 0.737073H1170.88L1161.36 14.7019L1171.29 29.2367ZM1180.05 23.8625H1192.07V29.2367H1174.44V0.737073H1191.86V6.11129H1180.05V12.1776H1190.84V17.4704H1180.05V23.8625ZM1222.41 0.737073H1227.99V29.2367H1222.41V17.4297H1211.82V29.2367H1206.2V0.737073H1211.82V12.0555H1222.41V0.737073ZM1251.6 29.2367L1249.89 24.1068H1238.53L1236.82 29.2367H1230.76L1240.73 0.737073H1247.69L1257.71 29.2367H1251.6ZM1240.32 18.8547H1248.14L1244.23 7.21056L1240.32 18.8547ZM1292.56 23.8625H1295.61V34.6923H1289.99V29.2367H1274.24V34.6923H1268.62V23.8625H1271.39C1272.96 21.6639 1273.75 18.4476 1273.75 14.2133V0.737073H1292.56V23.8625ZM1277.41 23.8625H1286.94V5.98915H1279.37V14.2948C1279.37 18.4204 1278.72 21.6097 1277.41 23.8625ZM1317.84 29.2367L1316.13 24.1068H1304.77L1303.06 29.2367H1297L1306.97 0.737073H1313.93L1323.95 29.2367H1317.84ZM1306.56 18.8547H1314.38L1310.47 7.21056L1306.56 18.8547ZM1339.51 0.737073H1345.13V29.2367H1339.51V18.814C1337.77 19.5468 1335.91 19.9132 1333.93 19.9132C1331.05 19.9132 1328.68 19.1125 1326.81 17.5111C1324.96 15.8826 1324.04 13.684 1324.04 10.9155V0.737073H1329.66V10.1827C1329.66 11.5398 1330.05 12.6119 1330.84 13.399C1331.65 14.159 1332.72 14.539 1334.05 14.539C1336.03 14.539 1337.85 14.1455 1339.51 13.3583V0.737073ZM1366.17 0.737073H1371.79L1363.24 21.3789C1360.96 26.916 1357.21 29.5353 1352 29.2367V23.9846C1353.52 24.1203 1354.74 23.9168 1355.66 23.3739C1356.61 22.8039 1357.4 21.8946 1358.03 20.6461L1348.7 0.737073H1354.32L1360.55 14.4983L1366.17 0.737073ZM1375.56 19.669L1374.46 8.87982V0.737073H1380.77V8.87982L1379.71 19.669H1375.56ZM1380.08 28.7481C1379.4 29.4267 1378.58 29.766 1377.63 29.766C1376.68 29.766 1375.87 29.4267 1375.19 28.7481C1374.51 28.0696 1374.17 27.2553 1374.17 26.3053C1374.17 25.3553 1374.51 24.541 1375.19 23.8625C1375.87 23.1839 1376.68 22.8446 1377.63 22.8446C1378.58 22.8446 1379.4 23.1839 1380.08 23.8625C1380.76 24.541 1381.09 25.3553 1381.09 26.3053C1381.09 27.2553 1380.76 28.0696 1380.08 28.7481Z" fill="#E58171"/>
</svg>
